<svg version="1.1" id="Layer_1" xmlns="http://www.w3.org/2000/svg" xmlns:xlink="http://www.w3.org/1999/xlink" x="0px" y="0px"
	 viewBox="0 0 2000 1250" style="enable-background:new 0 0 2000 1250;" xml:space="preserve">
<polygon class="level_2" points="0,33.5 366,363 1629,360.5 2000,35.5 2000,-0.5 0,-0.5 "/>
<path class="level_1" d="M644.8,236.3c69.9-25.1,123-56.3,123.5-118.3c0-1.3,0-2.5,0-3.6c0-3.6-0.7-9.9-0.6-13.2
	c0.1-5.2,4.8-5.4,4.8-5.4l955.3,1.5l-56,60.5l-4.5,4.2l-5.8,0.6c0,0-135.8-6.1-328.3,44.3c-153.8,40.3-166.5,94.5-166.5,94.5
	l-3.3,5.8l-4,0.8L458,307.5l-5.8-1.8l-27.5-34.9c0,0,36.7-1.4,81.5-6.8C554.6,258.1,612.6,247.8,644.8,236.3z"/>
</svg>
