<svg version="1.1" id="" xmlns="http://www.w3.org/2000/svg" xmlns:xlink="http://www.w3.org/1999/xlink" x="0px" y="0px"
	 viewBox="0 0 2000 1250" style="enable-background:new 0 0 2000 1250;" xml:space="preserve">
<style type="text/css">
	.st0{fill:#FF3D3F;}
	.st1{fill:#BF2E2F;}
</style>
<polygon class="level_1" points="8.8,-0.5 119,103.8 119,122 249.5,243.5 249.5,258 364.8,361.8 951.8,361.5 951.8,349.3 1020,349.3 
	1025.8,337.3 1626.3,336 1738.5,232.8 1756,233 1768.5,221.3 1785.8,221.8 2000,35.8 2000,-0.5 "/>
<g>
	<path class="level_2" d="M857,174.2c0,0-161-58.3-380.7-76c-219.7-17.7-348.7,4.7-348.7,4.7l-8.7,0.9V122l130.5,121.5V258l115.3,103.8
		l587-0.3v-12.3h68.3l5.8-12c0,0,14.3-33.1-19.1-75.8C973.3,218.8,857,174.2,857,174.2z"/>
	<path class="level_2" d="M1241.8-0.5c0,0-0.3,10.5,5.1,30.2c3.6,13.1,10.5,31.7,27.2,52c37.5,45.6,67,64.6,130.8,94.8
		s157.8,40.3,187.3,45.5s146.5,10.8,146.5,10.8l17.5,0.3l12.5-11.8l17.3,0.5l214.3-186V-0.5H1241.8z"/>
</g>


</svg>
