<svg version="1.1" id="Layer_1" class=" cell_n_1" xmlns="http://www.w3.org/2000/svg" xmlns:xlink="http://www.w3.org/1999/xlink" x="0px" y="0px"
	 viewBox="0 0 2000 1250" style="enable-background:new 0 0 2000 1250;" xml:space="preserve">
<style type="text/css">
	.st0{fill:#63866B;}
	.st1{fill:#FF3D3F;}
</style>
<path class="level_1" d="M6.3,0v32.3L217,224.7l31,2l19,18l-1.3,23.7L368.3,362l560.3-0.3v-23h186V362l520.3-1l322.3-281l-2.7-36.7
	L2000,0C1974.7,0.4,6.3,0,6.3,0z"/>
<g>
	<path class="level_2" d="M1439.8,75.5c71.7-28,107.3-50,107.3-50l-0.8-25.3L6.3,0v32.3L217,224.7l31,2c0,0,28.4,0.5,37.7-0.7
		c9-0.7,19.5-1.9,21.8-2.2c2.3-0.3,40.5-4.8,50.2-21.8c9.7-17,5.8-52.8,5.8-52.8s-1.3-7.3,1.2-9.5c2.5-2.2,17.2-10,34.2-11.2
		s68.8-0.2,90.2-5.8c21.3-5.7,61.2-7.5,94.2-37.8c0,0,22.3-18.2,17.2-61.5C598.4,6.8,598,0.1,598,0.1l101.8,0v24.5
		c-2.3,8.1,80.2,53.8,222.8,88.3c67,16.3,183.5,25.2,275.3,13.8C1289.8,115.5,1368.2,103.5,1439.8,75.5z"/>
	<path class="level_2" d="M891.2,303c-4.4-1.3-23.8-10.8-107.3-13.3c-43.8-1.3-147.8,4-149.3,4c-1.7,0-38,3.5-74.8,3.2
		c-34.6-0.3-62.2,0.3-96.7-10.5c-29.5-9.3-31.7-17.5-49-25.2c-25.5-11.3-45.3-15.2-61.5-16c-33-1.7-85.5-0.5-85.5-0.5l-1.3,23.7
		l108.1,95.3l515.8-1.6l39.2-0.3v-23C928.7,338.7,927.3,313.5,891.2,303z"/>
	<path class="level_2" d="M1954.7,43.3l-92.2,11.2c0,0-151.5,19-214.5,54s-55,36.5-100.8,80.5c-45.8,44-107.7,62-131.7,70.5
		s-111,27.5-146.5,29s-81.5,13-120,26s-34.3,24.2-34.3,24.2V362l520.3-1l322.3-281L1954.7,43.3z"/>
</g>
</svg>
