<svg version="1.1" id="Layer_1" xmlns="http://www.w3.org/2000/svg" xmlns:xlink="http://www.w3.org/1999/xlink" x="0px" y="0px"
	 viewBox="0 0 2000 1250" style="enable-background:new 0 0 2000 1250;" xml:space="preserve">
<polygon class="level_1" points="366,336.8 0,-0.5 2000,-0.5 1623.1,336.8 "/>
<path class="level_2" d="M0,31l279.5,254c0,0,55.2-31.8,416-92.5c1-0.2,3-0.5,3-0.5s-0.7,19.8,10.3,36.3c9.2,13.8,27.8,26.6,36.2,30.7
	c64.7,31.5,181.3,66,319.5,56c229.1-16.6,284.1-86,284.5-86.5c7.7-9.2,34.5-55-2.5-92c-0.3-0.3-0.8-0.8-0.8-0.8s202.7-3.1,270.3-2.2
	c64.9,0.9,259.5,9.5,259.5,9.5L2000,35V-0.5H0V31z"/>
</svg>
