<svg version="1.1" id="Layer_1" xmlns="http://www.w3.org/2000/svg" xmlns:xlink="http://www.w3.org/1999/xlink" x="0px" y="0px"
	 viewBox="0 0 2000 1250" style="enable-background:new 0 0 2000 1250;" xml:space="preserve">

<polygon class="level_2" points="0,33.5 364.5,362 1628,360.5 2000,37 2000,-0.5 0,-0.5 "/>
<path class="level_1" d="M1391.8,205.3C1350.5,264.5,1206,320.1,988,318.2c-222.3-2-354-66.7-388.3-115c-5.4-7.6-12.4-17.9-8.4-26.7
	c1-2.2,2.1-4.3,3.3-6.4C634.7,99.6,798.2,46.8,993.8,46.8c199.2,0,372.5,47.3,408.7,119.7c0.9,1.8,2.9,5,3,6.9
	C1406.3,185.5,1399.4,194.3,1391.8,205.3z"/>
</svg>
