<svg version="1.1" id="Layer_1" xmlns="http://www.w3.org/2000/svg" xmlns:xlink="http://www.w3.org/1999/xlink" x="0px" y="0px"
	 viewBox="0 0 2000 1250" style="enable-background:new 0 0 2000 1250;" xml:space="preserve">
<polygon class="level_1" points="0,34.2 365.3,362.2 1626,360.8 2000,35.7 2000,-0.5 0,-0.5 "/>
<path class="level_2" d="M0-0.5v34.7l365.3,328l1260.7-1.3l374-325.2V-0.5H0z M1233.3,275.5c0,0-50.2,16.3-107.8,25.8
	c-53.6,8.8-114.6,10.8-125.5,10.9c-116.4,1.2-210.3-25.5-210.3-25.5s-66.6-14.1-112.3-53.2c-25.3-21.7-16.7-38-16.7-38
	s0.2-0.5,0.7-1.3c6.4-10.6,57.3-82.8,250.6-92c208.7-10,307.3,25.3,307.3,25.3s98,33.3,109.3,68
	C1340,230.2,1233.3,275.5,1233.3,275.5z"/>
</svg>
