<svg version="1.1" id="" xmlns="http://www.w3.org/2000/svg" xmlns:xlink="http://www.w3.org/1999/xlink" x="0px" y="0px"
	 viewBox="0 0 2000 1250" style="enable-background:new 0 0 2000 1250;" xml:space="preserve">
<style type="text/css">
	.st0{fill:#FF6465;}
	.st1{fill:#FFB1B2;}
</style>
<path class="level_1" d="M365.5,337.7L8.3,0C8.3,0,2000,0.5,2000,0s-370.7,337.7-370.7,337.7H365.5z"/>
<path class="level_2" d="M0,32l116.7,106.2l47.2,9c0,0,334.2,67.7,602.2,27s336.7-49.3,336.7-49.3s235.3-44.7,356.7-38
	c110,6,214.4,14.3,246,56.9c3.3,4.4-6.7,27.3-14,37c-22.9,29.9-69.6,53.8-69.6,53.8s-37.7,18.3-91.3,32
	c-53.7,13.7-101,45.7-101,45.7l-12.3,12.6l-8.3,11.4l1,25.5l218.2-1L2000,37V0L0-0.5L0,32z"/>
</svg>
