<svg version="1.1" id="Layer_3" class=" cell_n_3" xmlns="http://www.w3.org/2000/svg" xmlns:xlink="http://www.w3.org/1999/xlink" x="0px" y="0px"
	 viewBox="0 0 2000 1250" style="enable-background:new 0 0 2000 1250;" xml:space="preserve">
<style type="text/css">
	.st0{fill:#84B28F;}
	.st1{fill:#9284B2;}
</style>
<polygon class="level_1" points="7.5,0 296.5,274 295.3,300.1 363.3,362.3 364,362.3 1627.1,361 2000,36.6 2000,0 416.5,0 "/>
<g>
	<path class="level_2" d="M419.2,27.8C489.3,56.3,584.7,133,875,163c465,48,777-137.5,777-137.5L1650.8,0H416.5L416,24.8
		C416,24.8,418.2,27.4,419.2,27.8z"/>
	<path class="level_2" d="M1793.3,0c0,0-214.5,152.5-404,212.3c-228,72-453.6,91.9-624.7,96.7c-227.3,6.3-468.2-35-468.2-35l-1.3,26.1
		l68,62.1l1263.9-1.3L2000,36.6V0H1793.3z"/>
</g>
</svg>
