<?xml version="1.0" encoding="utf-8"?>
<!-- Generator: Adobe Illustrator 19.2.0, SVG Export Plug-In . SVG Version: 6.00 Build 0)  -->
<svg version="1.1" id="Layer_1" xmlns="http://www.w3.org/2000/svg" xmlns:xlink="http://www.w3.org/1999/xlink" x="0px" y="0px"
	 viewBox="0 0 400 400" style="enable-background:new 0 0 400 400;" xml:space="preserve">
<style type="text/css">
	.st0{fill:none;stroke:#000000;stroke-miterlimit:10;}
</style>
<rect x="75.2" y="133.9" class="st0" width="250.1" height="133.2"/>
<path class="st0" d="M75.6,232.6c0,0,15.5-0.6,22.2-8.9c6.7-8.3,2.2-19.4,5.5-32.2s12.1-19.4,25.8-22.8c13.6-3.3,20.8-5,24.2-11.7
	s3.9-23.2,3.9-23.2"/>
<path class="st0" d="M204.3,133.9c-2.8,20.8,8.3,28.2,8.3,28.2s6.3,5.1,21.4,6.1c19.4,1.2,39.5-11.4,48.7-9.9
	c3.6,0.6,11,4.7,12.1,11.6c1.1,7,1.6,10.7,4.2,16.1c6.7,14.4,26.3,8.3,26.3,8.3"/>
<path class="st0" d="M249.8,267.1c0,0-2.5-10.1,5.2-19.6c5.2-6.3,16.5-6.2,20.3-6.5c14.1-1.1,17.3-5.6,21.4-14.8
	c1.4-3.2,7-9.3,15.1-10.3c7.8-0.9,13.5,0.7,13.5,0.7"/>
<path class="st0" d="M177.1,230.5c-33.4,0-60.5,16-60.5,37h121C237.6,246.5,210.6,230.5,177.1,230.5z"/>
</svg>
