<?xml version="1.0" encoding="utf-8"?>
<!-- Generator: Adobe Illustrator 19.2.0, SVG Export Plug-In . SVG Version: 6.00 Build 0)  -->
<svg version="1.1" id="Layer_1" xmlns="http://www.w3.org/2000/svg" xmlns:xlink="http://www.w3.org/1999/xlink" x="0px" y="0px"
	 viewBox="0 0 400 400" style="enable-background:new 0 0 400 400;" xml:space="preserve">
<style type="text/css">
	.st0{fill:none;stroke:#000000;stroke-miterlimit:10;}
</style>
<rect x="75.6" y="133.2" class="st0" width="249.9" height="133.2"/>
<path class="st0" d="M257.1,133.5h-27.6v23h18.3c-0.7,3.8-1,7.6-1,11.6c0,32,23.1,57.9,51.5,57.9c2.1,0,4.2-0.2,6.3-0.4v17.9h21
	v-110h-68.2C257.3,133.5,257.2,133.4,257.1,133.5z"/>
<path class="st0" d="M168.9,204c-12.9-18.2-32.4-28.9-50.4-30.4v-20h-21v-20h-22v133h125v-23h-17.8
	C182.2,230.2,177.7,216.4,168.9,204z"/>
</svg>
