<?xml version="1.0" encoding="utf-8"?>
<!-- Generator: Adobe Illustrator 19.2.0, SVG Export Plug-In . SVG Version: 6.00 Build 0)  -->
<svg version="1.1" id="Layer_1" xmlns="http://www.w3.org/2000/svg" xmlns:xlink="http://www.w3.org/1999/xlink" x="0px" y="0px"
	 viewBox="0 0 400 400" style="enable-background:new 0 0 400 400;" xml:space="preserve">
<style type="text/css">
	.st0{fill:none;stroke:#000000;stroke-miterlimit:10;}
</style>
<rect x="75.2" y="133.2" class="st0" width="250.5" height="133.2"/>
<path class="st0" d="M285.8,201c0-8.4-3.3-16.3-7.3-23.5V159c0-2.3-2.2-4.5-4.5-4.5h-22.3c-14.2-7-32-11.7-51.2-11.7
	s-37,4.7-51.2,11.7h-22.3c-2.3,0-4.4,2.2-4.4,4.5v18.5c-4,7.2-7.3,15.1-7.3,23.5c0,8.4,3.3,16.3,7.3,23.5v16.2
	c0,2.3,2.1,3.9,4.4,3.9H145c14.9,9,34.2,14,55.4,14s40.5-5,55.4-14H274c2.3,0,4.5-1.6,4.5-3.9v-16.2
	C282.5,217.2,285.8,209.3,285.8,201z"/>
</svg>
