<svg version="1.1" id="Layer_1" xmlns="http://www.w3.org/2000/svg" xmlns:xlink="http://www.w3.org/1999/xlink" x="0px" y="0px"
	 viewBox="0 0 2000 1250" style="enable-background:new 0 0 2000 1250;" xml:space="preserve">

<polygon class="level_2" points="0,28.5 364.5,361 1626.5,359.5 2000,33.5 2000,-0.5 0,-0.5 "/>
<path class="level_1" d="M531.3,265.4c-2.7-0.3-5.8-3.2-5.8-3.2l-68.1-98.7h9.7c0,0,66-5.3,67.7-39.7c0-0.4,0.1-4.8,0.3-6.7
	c0.2-2.2,3.4-3,3.4-3l0.8,0l914.5-1c0,0,11-0.3,11.3,5c0.3,5.3-4.3,40.9,71.8,45.3c0.5,0,1.5,0.1,1.5,0.1l-6.3,8.3l-0.8,1.1
	l-63.9,87.5c0,0-4,5-9.7,5.3c-5.6,0.3-69.5,0-114.5,29.8c-0.3,0.2-0.8,0.6-0.8,0.6s-5.7,2.8-7.7,3.3c-2.8,0.7-11.6,0.7-11.6,0.7
	H659.7c0,0-3.7,0.7-9-1.7c-5.3-2.3-11-22-110.7-32.3c-0.4,0-1.1-0.1-1.1-0.1S533.2,265.6,531.3,265.4z"/>
</svg>
