<!-- Generator: Adobe Illustrator 21.0.0, SVG Export Plug-In . SVG Version: 6.00 Build 0)  -->
<svg version="1.1" id="Layer_1" xmlns="http://www.w3.org/2000/svg" xmlns:xlink="http://www.w3.org/1999/xlink" x="0px" y="0px"
	 viewBox="0 0 5669.3 3543.3" style="enable-background:new 0 0 5669.3 3543.3;" xml:space="preserve">
<style type="text/css">
	.color_meb{fill:#88BABA;}
</style>
<g>
	<path class="color_meb" d="M4252,2420.9c-2.7,0-5.5-0.1-8.2-0.1l0,0c-4.8-39-9.7-78-14.3-117c-0.8-6.6-2.9-12.6-9.9-10.3
		c-21.8,7.1-44.5,6-66.7,9c-30.9,4.2-61.9,1.4-92.8,3.1c-23.5,1.3-47.7-3.1-71.3,1.7c-15.8,3.2-30.5-2.5-45.9-3.2
		c-28.3-1.3-56.5,5.3-84.5,2.5c-18.9-1.9-37.6-2.1-55.8,1.4c-12.9,2.5-25.8-3.1-37.3-7.7c-11.4-3.1-64.4-6.5-98-8
		c-37-1.6-78.3-2.5-115-7c-21.7-2.7-46.5,3.4-65.2-13.3c-3.2-2.8-7.7-1.2-9.7,2.8c-4.4,8.9-13,19.7-10.2,30.7
		c9.9,39,3.9,78.5,4.9,117.8c-3.2,3.9-3.1,8.5-3.3,13.3c-0.2,5.2-0.3,10.3-0.4,15.5c-0.6-9.8-1.8-19.6-4.4-29.3
		c0.3-15.6-5.7-31.4-4.3-46.1c2.8-29.7-2.4-60.1-2.7-89.7c-0.1-10.2-3.7-16.1-12.3-13.7c-30.9,8.6-64.8,13.8-97,14.7
		c-11.3,0.3-41.5,1.4-52.7,2.7c-22.7,2.5-35.3,2.5-57.3,3.7c-14.1,0.7-21.2,0.7-35,3.7c-8.5-0.7-17.1-2.1-26.3-0.7
		c-14.1,2.2-28,2.4-42.2,2.1c-31.5-0.6-62.9,2.3-94.3,5.1c-3.1,1.1-5.8,2.6-7.1,5.6c-5.9,0.7-11.1-2.1-16.6-3.4
		c-10-10.6-24.8-9.4-36.9-14.8c-3.8-1.7-8.4-2.4-11.7,1.2c-3.4,3.7-3.5,7.6-1.4,11.4c-18.2-5.2-36.7-2.1-55.1-1.5
		c-17.4,0.6-34.4,9.4-51.7,5.1c-33.4-8.3-67.1-9.6-101.2-9.2c-6.2,0.1-24.3-5.7-29.2-1.2c-8.5-0.6-2.8,2.3-10.8-2.8
		c-18.2,1.3-33.7-1.1-51.3-6c-16.5-1.7-37.1-5.3-55.3-11.8c-7.8-0.7-15.3,4.1-17.7,12.6c-0.9,3.2,1.1,10.4-0.9,13.3
		c-0.9-3.7-1.5-7.5-3.4-10.9c-8.6-14.6-12.4-16.8-27.2-12c-51.1,16.3-104.4,15.3-156.8,17.5c-30.9,1.3-61.9,2.6-92.8,4.9
		c-7.6-1-15.3-1-22.9,0.1c-23-1.7-45.9,1.4-68.6,3.7c-12.9,1.3-25.1,0.7-41.6,1.9c-15.2,0.2-28-2.3-43.2-1.8
		c-14.9,0.5-21.7-0.9-37-0.7c-11.8,0.2-38.1,9.4-57.7,2.7c-12.1-4.1-38-3.4-50.9-3.3c-56.7,0.5-106.5-6.3-164.7-22.7
		c-8.2-2.3-12.1,5.8-11.8,14.8c0.6,16.5-6.3,32.8-2.9,49c5.8,27.7,0.1,52.1-0.9,79.5l-6.1,0.2c-14.6,1.4-24-0.4-38.1-3.2
		c-40.8-7.9-76.9-7.6-117.4,0.8c-7.6,1.6-14.3,4.9-19.6,11.8c-6.2,17.3-8.2,59.2-9.5,91.5c-2.1,7.9-5,22.7-5.9,30.6
		c-5.1,43.3-6.3,86.9-9.3,130.3c-0.4,5.2-0.2,10.5,2.6,15c-4.2,1.2-7.4,4.2-11,6.5c-10.8,5.3-21.4,11-32.3,15.9
		c-7,3.1-10,7-11.4,15.2c-3.7,20.9-0.9,35-6.2,55.7c-5.6,21.6-4,33.3,16.5,42c7.2,3,11.7,7.3,19,10.2c-3.4,2.9-5.1,9.9-9.3,10.6
		c-23.7,3.7-28.5,12.8-32.4,27.1c-3.2,11.6-3.6,24.2-3.9,36.3c-0.6,23-1.5,26.9-1.6,49.9c-0.9,18.8-2.7,38.8,19.9,41.3
		c5.8,1.4,8.2,1.4,14.1,1.5c11.2,1.6,16.3-0.1,27.6,0.1c46.6,1.1,55.9,0,102.6,0.6c57.5,0.6,116.3-0.3,173.8-0.4
		c8.4,0,67.5-0.5,76.8,0.3c-0.6-13,0.9-25.4-0.2-51c-0.1-2.3,1-31.7-0.3-33.6c-0.5-2.5-7.9-2.3-13.9-2.9c-47.9-4.3-96-4.2-143.8-8.3
		c-38.5-3.3-77.1-5.5-115.2-12.6c-9.5-1.8-26.7-1.1-27-15.6c-0.3-14.9,4.4-23.1,13.8-25.2c24-5.2,23.7-5.1,48-8.5
		c4.3-0.6,23.3-3,32.8-3.8c1.6,0.2,26.6-2.1,28.2-1.8c50-4,77.2-5.2,118-6.5c6.1-0.2,15-0.4,14.6-5.1c0.6-6.4,0.5-19.7,0.6-33.3
		c0.2-35.2,11.8-364.6,13.1-371.1c3.1-15.7,18.6-21.3,34.8-21.3c41.6,0,360.3-0.8,503-0.8c7.1,0,67.2-0.3,74.3,0.8
		c11.3,1.6,16.9,17.8,16.8,29.8c-0.6,68-4,238.6-4,238.6s1.9,20.3,2,40.7c0,8-4.5,16.8,0.8,13.2l0,0c6.9-3,3.4-12.5,9.6-15.7
		c12.2-6.3,18.3-19.5,30.6-25.8c4.1-2.1,5.9-6,5-10.7c0.4-0.5,0.9-1,1.3-1.6c-0.1-7,1.3-13.7,2.9-20.5c0.5-2.2,1-4.4,1.4-6.5
		c-0.9,5.8,0.9,12,0.5,17.9c-0.3,3.8,2.9,4.6,5.3,2c2.2-2.4,3.6-5.5,5.3-8.3c0.5,0.1,1,0.3,1.5,0.3c3.5-1.4,6.1-3.5,7.9-6.1
		c-0.5,2.3-0.6,4.6-0.4,7c-0.1,0-0.2,0-0.2,0.1c-1.7,2.1-9.6,4.1,0.2,6.1c14.4,2.9,28.7,6.3,43,9.5c-8.6,1.2-16.7,1.4-25.2,0
		c-11.1-1.7-24.5-6.1-33.8,2.6c-24.7,23.1-51.4,45.3-58.3,81.4c0,17,2.5,29.9,2.5,46.9c3.3,5.4,3.6,7.3,9.7,10.3
		c8.9,5.1,16.8,5.2,26.7,4.7c24.5-1.4,64.2-1.8,71.3-1.5c12.3,0.5,6.7,0.1,27.9-6.1c16.7-4.9,18.5-18.4,32.4-20.7
		c19.7-3.3,52.2-6.5,67.1-22.3c10.9-11.6,23.7-21.5,35-32.8c8.4-8.5,19.1-10.7,29.7-13.8c-7.1,7.8-18.6,8.9-28.7,19.7
		c14.9-6.1,26-10.6,37.1-15.2c-17,15.9-40.9,20.5-56.5,38.1c22.9-8,43.9-19.9,65.9-29.5c33-14.4,61-34.6,81.7-63.8
		c6.7-9.5,17.8-15.5,21.3-27.3l0,0c5-2,5.4-7.4,8.2-11l0,0l0,0l0,0c3.3-6.1,10.6-9.6,11.5-17.3c0,0,0,0,0-0.1
		c3.4,2.7,6.4-1.1,8.8-3.6c1-1,1.9-2.1,2.9-3.1c-2.4,2.7-4.8,5.3-7.4,7.9c-4.6,4.5-8.2,9.1-5.2,15.9c-3,2.1-6.1,4.2-7.3,7.7
		c-7.1,2.1-10.5,8.3-15.1,13.5c-15.8,18-29.5,37.7-47,54.4c-3.1,3-7,9.4-1.6,10.8c-6.4,0-12.8,0.4-18.7,3
		c-27.7,11.9-53.8,27-80.9,40.3c-2.1,1-4.5,2.2-4.4,4.9c0.1,1.9,1,3,2.2,3.7c-15.1-1.8-18.3,2.6-32.5,9.9
		c-12.8,6.6-33.8,14.3-48.8,14.8c-17.9,0.6-22.3-1.4-32.3,14.3c-3.1,4.9-8.6,3.7-3.3,6c6.8,2.4,4.3,1.7,11.3,1.8
		c85,1.4,161.5-2.2,246.5,1c70.2,2.6,154.4,6.2,224.7,7.7c148.3,3,221,14,226.2,14.8c6.5,1,12.1,1.6,18.5,3.5
		c7.6,2.2,11.1,13.4,11.2,21.7c0.1,7.9-1.7,12.6-7.7,14.5c-9.9,3.1-26.1,8.2-36.3,9.7c-76.2,11.2-160.7,12.8-237.5,17
		c-74.4,4-148.9,7-223.4,9.1c-6,0.2-8.4-0.3-12.7,5.5c0.1,26.3-0.5,46.7-0.3,73c210,1.3,900.5-1,920.5-3.3
		c3.5-15.2,5.7-26.3,9.2-41.5c8.3-36.7,17.2-73.5,23.3-110.7c6.1-16,7.4-33.2,11.5-49.7c10.6-43,15.5-87.1,29.4-129.3
		c5.4-16.4,13.7-29.4,32.8-31.8c4.4-0.6,8.4-3.4,12.6-5.3l0,0l0,0c21.9-7,44.6-5.4,67-5.2c21.7,0.2,42.9-0.8,63.8-8
		c23.5-8,47.5-14.3,73-12c14.3,1.3,28.1-4.2,40.4-9.8c10-4.6,5.8-0.2,7.9-9.6c0.2-0.9,2.6-20.7,2.9-21.6
		c6.7-19.9,12.4-38.1,18.6-58.2c7.1-23.2,16.9-43.8,17.8-68.6l0.3-2.6c4.1-2.2,2.4-7.2,2.4-7.2
		C4251.2,2426.4,4249.3,2427.4,4252,2420.9z M2591.4,2423.9c0,0.8,0,1.5,0,2.3c-0.7,0-1.3-0.1-2-0.1c0-0.3,0-0.7-0.1-1
		c2.6-8,2.8-16.2,3.1-24.5C2592.4,2408.3,2592.1,2416.1,2591.4,2423.9z M2596.6,2655.7c0.2-1.2,0.4-2.4,0.6-3.6
		c0.1,0.3,0.2,0.5,0.3,0.8C2597.1,2653.8,2596.8,2654.8,2596.6,2655.7z M2621.1,2649.5c0.5-4.4,1.1-8.8,1.7-13.3
		c0,0.5,0,0.9,0.1,1.4C2623.2,2641.8,2622.3,2645.7,2621.1,2649.5z M2625.7,2614.9c0.4-3.4,0.9-6.9,1.3-10.4
		C2626.8,2608.1,2626.3,2611.6,2625.7,2614.9z M2823.1,2785.3c2.7,0.3,5.3,0.6,7.8,0.8C2828.4,2786.1,2825.7,2786,2823.1,2785.3z
		 M2942.3,2729.3c1.1-0.3,2.2-0.6,3.3-1C2944.6,2729,2943.5,2729.2,2942.3,2729.3z M3018.7,2589.4c-1.3,2.2-2.6,4.3-3.9,6.4
		C3016,2593.6,3017.3,2591.4,3018.7,2589.4z M2969.5,2711.5c-8.1,7.6-10.1,9.3-3.7,13.7c-3.9-1.8-7.8-2.2-11.7-1.3
		c1.1-0.8,2.2-1.6,3.2-2.6c4.3-4,8.8-7.7,13.4-10.9C2970.3,2710.8,2969.9,2711.1,2969.5,2711.5z M2990.4,2699.6
		c7.9-3.3,16.4-5.4,25.5-6.3c0.3,0,0.5-0.1,0.8-0.1C3008.2,2695.2,2999.1,2696.6,2990.4,2699.6z M3059.9,2536.3
		c0.6-2.1,0.9-4.3,1.1-6.5C3061.2,2531.9,3060.8,2534.1,3059.9,2536.3z"/>
	<polygon class="color_meb" points="2322.5,2937.3 2121.5,2933.8 1983,2930.3 1983,3013.8 2770.5,3008.3 2770.5,2932.8 2540.4,2937.3 	"/>
</g>
</svg>
