<?xml version="1.0" encoding="utf-8"?>
<!-- Generator: Adobe Illustrator 19.2.0, SVG Export Plug-In . SVG Version: 6.00 Build 0)  -->
<svg version="1.1" id="Layer_1" xmlns="http://www.w3.org/2000/svg" xmlns:xlink="http://www.w3.org/1999/xlink" x="0px" y="0px"
	 viewBox="0 0 250 133" style="enable-background:new 0 0 250 133;" xml:space="preserve">
<style type="text/css">
	.st0{fill:none;stroke:#000000;stroke-miterlimit:10;}
</style>
<rect x="0.2" y="0.9" transform="matrix(-1 -4.445079e-011 4.445079e-011 -1 250.1732 133.5208)" class="st0" width="249.8" height="131.7"/>
<path class="st0" d="M249.6,98.4c0,0-15.5-0.5-22.2-8.8c-6.7-8.2-2.2-19.2-5.5-31.8c-3.3-12.6-12.1-19.2-25.7-22.5
	s-20.8-4.9-24.1-11.5c-3.3-6.6-3.9-22.9-3.9-22.9"/>
<path class="st0" d="M121,0.9c2.8,20.5-8.3,27.9-8.3,27.9s-6.3,5.1-21.4,6C71.9,36,51.8,23.5,42.7,25c-3.6,0.6-11,4.6-12.1,11.5
	C29.5,43.4,29,47,26.4,52.4c-6.7,14.2-26.3,8.2-26.3,8.2"/>
<path class="st0" d="M75.6,132.6c0,0,2.5-10-5.2-19.3c-5.2-6.3-16.5-6.2-20.3-6.4c-14.1-1.1-17.2-5.5-21.3-14.7
	c-1.4-3.2-7-9.2-15-10.2c-7.8-0.9-13.5,0.7-13.5,0.7"/>
<path class="st0" d="M148.1,96.9c33.4,0,60.4,15.6,60.4,35.6H87.7C87.7,112.5,114.8,96.9,148.1,96.9z"/>
</svg>
