<?xml version="1.0" encoding="utf-8"?>
<!-- Generator: Adobe Illustrator 19.2.0, SVG Export Plug-In . SVG Version: 6.00 Build 0)  -->
<svg version="1.1" id="Layer_1" xmlns="http://www.w3.org/2000/svg" xmlns:xlink="http://www.w3.org/1999/xlink" x="0px" y="0px"
	 viewBox="0 0 250 133" style="enable-background:new 0 0 250 133;" xml:space="preserve">
<style type="text/css">
	.st0{fill:none;stroke:#000000;stroke-miterlimit:10;}
</style>
<rect x="-0.5" y="1.3" transform="matrix(-1 4.432087e-011 -4.432087e-011 -1 249.3758 134.328)" class="st0" width="250.3" height="131.7"/>
<path class="st0" d="M68,132.5h28.5v-22H77.4c0.7-4,1-7.8,1-11.7c0-31.6-22.6-57.4-51.1-57.4c-2.1,0-3.8,0-5.8,0.3V24.5h-22v108
	h68.3C67.9,132.5,67.9,132.5,68,132.5z"/>
<path class="st0" d="M156.7,63.3c12.9,18,32.8,28.3,50.8,29.8v20.4h21v19h21V1.5h-124v23h17C143.1,36.5,147.9,51.1,156.7,63.3z"/>
</svg>
