<?xml version="1.0" encoding="utf-8"?>
<!-- Generator: Adobe Illustrator 19.2.0, SVG Export Plug-In . SVG Version: 6.00 Build 0)  -->
<svg version="1.1" id="Layer_1" xmlns="http://www.w3.org/2000/svg" xmlns:xlink="http://www.w3.org/1999/xlink" x="0px" y="0px"
	 viewBox="0 0 250 133" style="enable-background:new 0 0 250 133;" xml:space="preserve">
<style type="text/css">
	.st0{fill:none;stroke:#000000;stroke-miterlimit:10;}
	.st1{fill:none;stroke:#000000;stroke-miterlimit:10;}
</style>
<path class="st0" d="M250,57.3c0,0-37.3,9.3-60.2-22.3c-14.1-19.5-11.9-33.4-12.1-35.1h0.4H250V57.3z"/>
<path class="st1" d="M250,76.7c0,0-0.5,0.1-1.3,0.3c-6.8,1.3-38.1,6.6-66.5-2.7c-29.1-9.5-39.4-24.9-39.4-24.9S124.4,20.6,94,10.9
	S43.9,4.3,36.8,5.3c-4.4,0.7-11.1,2.6-15.6,4c-2.8,0.9-2.6,0.6-2.7,1.8c-0.1,1.2-0.2,0.6,1.7,2.4c2.7,2.6,5.5,7.1,3,13.7
	c-2.8,7.5-6.8,11.9-6.8,11.9s-7.1,11.1-5.8,18.2c0.5,2.7,1,5,1.5,6.7c0.8,2.9,1.6,2.9,1.7,3c0.2,0.1,1,0.6,3.3-0.5
	c5.7-2.7,17.7-7.4,32.9-7.3c21.7,0.2,39.7,4.3,55.1,18.5c11.1,10.2,26.1,21.4,46.5,25.9c22.5,5,47,12.3,97.3-9.8
	c0.4-0.2,1.1-0.5,1.1-0.5V76.7z"/>
<path class="st1" d="M49.1,132.7c0,0,14.6-1.6,24.1-13.2c6.9-8.5,11.5-23.4,3.1-40.3c-0.6-1.1-0.4-1.2,0.4-1.5
	c0.2-0.1,1.4,0.2,2.4,1.2c23.9,24,23.3,53.9,23.3,53.9H49.1z"/>
<circle class="st1" cx="44.8" cy="97.1" r="24.3"/>
<rect y="-0.1" class="st1" width="250" height="133.2"/>
</svg>
