<?xml version="1.0" encoding="utf-8"?>
<!-- Generator: Adobe Illustrator 19.2.0, SVG Export Plug-In . SVG Version: 6.00 Build 0)  -->
<svg version="1.1" id="Layer_1" xmlns="http://www.w3.org/2000/svg" xmlns:xlink="http://www.w3.org/1999/xlink" x="0px" y="0px"
	 viewBox="0 0 250 133" style="enable-background:new 0 0 250 133;" xml:space="preserve">
<style type="text/css">
	.st0{fill:none;stroke:#000000;stroke-miterlimit:10;}
</style>
<rect x="0.4" y="0.4" transform="matrix(-1 4.489774e-011 -4.489774e-011 -1 250.8864 133.8813)" class="st0" width="250.1" height="133.2"/>
<path class="st0" d="M250.5,84.1c-19-8.6-43.7-13.9-71-13.9C120.7,70.2,73,94.5,73,124.5c0,3.1,0.5,6,1.5,9h176V84.1z"/>
<path class="st0" d="M0.5,124.4c16-1.5,27.3-20.9,27.3-44.6S16.5,36.6,0.5,35.2V124.4z"/>
<path class="st0" d="M0.5,0.5v10.9c15,17,42.7,28.6,75,28.6c38.8,0,71.2-16.5,82.4-39.5H0.5z"/>
<path class="st0" d="M241.4,55.3c3,0,6.1-0.2,9.1-0.6V0.5H186c-0.3,2-0.4,3.8-0.4,5.8C185.6,33.4,210.6,55.3,241.4,55.3z"/>
</svg>
