<svg version="1.1" id="Layer_2" class=" cell_n_2" xmlns="http://www.w3.org/2000/svg" xmlns:xlink="http://www.w3.org/1999/xlink" x="0px" y="0px"
	 viewBox="0 0 2000 1250" style="enable-background:new 0 0 2000 1250;" xml:space="preserve">
<style type="text/css">
	.st0{fill:#9284B2;}
	.st1{fill:#63866B;}
</style>
<polygon class="level_1" points="21.1,0.1 381.1,340.6 1615.6,331.6 1756.6,222.4 1849.5,136.6 2000,0 "/>
<g>
	<path class="level_2" d="M364.5,190.5c0,0-20.8-48.9-64-81c-37-27.5-111-69-180-91C73.7,3.6,63.2,0.2,61.4-0.5L6.3,0L5.5,26l289,263.5
		c0,0,69-10.9,70-62.7S364.5,190.5,364.5,190.5z"/>
	<path class="level_2" d="M61.4-0.5l0.1,0C61.5-0.5,60.5-0.8,61.4-0.5z"/>
	<path class="level_2" d="M443.3,289.5c0,0-50.2,12.8-73.3,36.3c-0.3,0.3-2.8,2.4-2.8,2.4l-1.6,25.2l9.7,5.6h759.3v-28.7
		c0,0-90-60-326-72.7C572.7,245,443.3,289.5,443.3,289.5z"/>
	<path class="level_2" d="M1402,259.8c-55.4,14.3-84.9,31.9-104.3,43.8s-23.8,29.1-23.8,29.1v18.3l1.9,3.9l4.1,3l356.3-0.9l121-106.8
		c0,0-0.1-27.7-0.6-27.8C1570,220.5,1457.2,245.6,1402,259.8z"/>
	<path class="level_2" d="M628.5,0v22c0,0,99,50.5,200.5,84.5s302,62.5,493.5,71S1870,153,1870,153l130-114V0H628.5z"/>
</g>
</svg>
