<svg version="1.1" id="Layer_1" xmlns="http://www.w3.org/2000/svg" xmlns:xlink="http://www.w3.org/1999/xlink" x="0px" y="0px"
	 viewBox="0 0 2000 1250" style="enable-background:new 0 0 2000 1250;" xml:space="preserve">

<polygon class="level_1" points="4,0 363.2,339.2 417.7,339.2 418.2,345.3 823.8,352.5 966.7,338 1179.3,336.8 1181.3,361.5 
	1624.7,361.5 1759.1,243.9 1757.3,216.8 1770,204.2 1802.3,206.3 1857.4,158.4 1855.3,126.8 1993.3,-0.5 "/>
<g>
	<path class="level_2" d="M570,203.7c34.3-8.7,43.8-30.4,45.3-34.5c0.2-0.4,0.2-0.7,0.2-0.7v-47.3c0,0-0.3-0.6-0.4-0.9
		C603.7,94,568.6,72,517.2,55c-52-17.2-96-20-126.7-22.3c-30.7-2.3-75.8,0.8-117.7,12.2C231,56.2,224,85.5,224,85.5l-1.8,35.7
		c0,0,1.5,21.2,26,39.3s87.5,43.2,160,52.2S532,213.3,570,203.7z"/>
	<path class="level_2" d="M541.3,49.2c14.6,4.6,45,13.8,66.7,24c37,17.4,65,37.3,65,37.3s30.3,25.7,28,36s-22.3,28.3-22.3,28.3v29
		c0,0,0,0,0.7,2.7c0.7,2.7,8,1.7,8,1.7s26.7-4.7,103-35.7s76-82.3,76-82.3s1.7-16,0-45.3c-1.7-29.3-13.7-44.3-13.7-44.3L373.2-0.1
		l-0.5,0v24.3c0,0,0.3,0,0.5,0C413.4,22.9,492.4,33.7,541.3,49.2z"/>
	<path class="level_2" d="M1855.3,126.8c0,0-21.8-8.4-70.6-19.6c-42-9.7-101.2-21.9-216.8-27.8C1342,68,1089.5,116,959.3,174.8
		C846.9,225.6,689.4,234.1,665,235c-239.4,8.5-359.7-33.5-359.7-33.5s-1.8-0.8-9.7-1.4s-8.9,5.6-8.9,5.6s0.5,11,0,29.5
		s39.8,50.5,74.8,55.9s48,16.4,48,16.4s12.3,7.6,12.9,10s-4.6,2.8-4.6,2.8l0.4,25.1l405.7,7.2c0,0,26.8-2.7,134.5-13.7
		c1.3-0.1,2.5-0.3,3.8-0.4c134.4-17.3,172.9-56.4,270.9-93.6c4-1.5,29.6-8.3,33.9-9.4c244-56.8,503.1-31.4,503.1-31.4l32.3,2.1
		l55.1-47.9L1855.3,126.8z"/>
	<path class="level_2" d="M1756.2,216.8c-14.8-0.5-58.8-11.8-158.2-7c-126.5,6.2-195.9,18.6-300.3,51.7
		c-96.4,30.5-118.3,75.3-118.3,75.3l2,24.7h443.3l134.5-117.6l-1.8-27.1C1757.3,216.8,1756.6,216.8,1756.2,216.8z"/>
</g>
</svg>
