<svg version="1.1" id="Layer_4" class=" cell_n_4" xmlns="http://www.w3.org/2000/svg" xmlns:xlink="http://www.w3.org/1999/xlink" x="0px" y="0px"
	 viewBox="0 0 2000 1250" style="enable-background:new 0 0 2000 1250;" xml:space="preserve">
<style type="text/css">
	.st0{fill:#84B28F;}
	.st1{fill:#6D6386;}
</style>
<polygon class="level_2" points="0,0 0,33.6 362.3,360.1 1631.5,358.6 2000,37.3 2000,0 "/>
<path class="level_1" d="M586.9,298.6l-4.5-0.8l-2.9-3l-18.9-32.8c0,0-2-2.8-2.4-2.8s-3.9-1.8-3.9-1.8l-5.4-2.4c0,0-40.5-15.6-59.8-34.6
	S469,190.3,469,190.3s-0.4-1.3,4.3-7.3s5.4-6.1,5.4-6.1l1.1-2l0.4-2.3L481,143c0,0-1.1-2.6-1.4-3.5s-3.6-5.1-4-5.6s-14.9-23-14.9-23
	h138.9h24.3l4.3-0.6l5.1-1.5c0,0,62.6-15.5,109.8-20.9s109.5-17.1,218-18.6s221.3,4.5,221.3,4.5s60.5,1.5,187,25
	c24,4.5,40.5,7.6,51.5,9.7c0.7,0.1,1.4,0.2,2.1,0.4c9.1,2.2,21.8,1.9,21.8,1.9l2.7-0.1l121.8,0.2c-8.5,11.3-17.5,25-17.5,25
	l1.2,30.5l0.7,3.5l1.8,2.8c0,0,9.5,7.8,12.2,17.5c2.7,9.7-41.5,49-102.8,69.2c-0.7,0.2-1.4,0.5-2.1,0.7c-0.7,0.2-2,1.4-2.4,2
	c-6.6,10.4-24.3,35.6-24.3,35.6l-125.8,1l-8.3,0.7c0,0-37.3,5.7-37.8,5.7s-30.2,6.7-132.3,12.3c-102.2,5.7-174.2,3.2-174.2,3.2
	s-143.3-7.3-204.3-16.1c-9.3-1.3-19.5-2.8-25-4.1c-8.1-2-13.3-1.6-13.3-1.6L586.9,298.6z"/>
</svg>
