<svg version="1.1" id="Layer_1" xmlns="http://www.w3.org/2000/svg" xmlns:xlink="http://www.w3.org/1999/xlink" x="0px" y="0px"
	 viewBox="0 0 2000 1250" style="enable-background:new 0 0 2000 1250;" xml:space="preserve">
<polygon class="level_1" points="0,-0.5 400.6,334.2 1313.9,336.4 1618.6,334.2 2000,-0.5 "/>
<path class="level_2" d="M1436.7,171.3c7.3,98.8-177.4,162.8-396.3,162.8S655.8,277.8,666,177.5c9.5-93,162-152.7,373-159
	C1275.9,11.4,1430,81.6,1436.7,171.3z"/>
<path class="level_2" d="M349.3,0v22.8c0,0-128.7,71.3-93.3,134.7c35.3,63.3,82.6,125.3,299.1,181.3c0.1,0,0.2,0.1,0.2,0.1v24h-0.4
	H365.3L0,32.2V-0.5L349.3,0z"/>
<path class="level_2" d="M1459.3-0.5v24.3c0,0,115.5,60.5,123.3,125.8s-142,145.2-173.3,156.5c-21.3,7.7-53.4,22.9-95.4,30.4
	c-0.1,0-0.4,0.1-0.4,0.1v25.3h0.3h313.4L2000,37V-0.5H1459.3z"/>
</svg>
