<svg version="1.1" id="" xmlns="http://www.w3.org/2000/svg" xmlns:xlink="http://www.w3.org/1999/xlink" x="0px" y="0px"
	 viewBox="0 0 2000 1250" style="enable-background:new 0 0 2000 1250;" xml:space="preserve">

<path class="color_meb" d="M1981.6,1119.1l-0.6-7.4l-2.4-37.3l-3.2-40l-3.3-35.4c0,0-2-24.8-3.4-33.3c-1.4-8.4,1.9-8.6-6.5-13.4
	c-8.5-4.8-33.8-6.8-41.5-8.2c-7.7-1.5-37.8-2.8-41.8-2.8c-4,0-25.3,0.6-25.3,0.6l-6.2,0.9l-3-0.3l-1.1-0.4l-0.6-0.8l8.5-8.3
	c0,0,3.3-2.7,4.8-5.3s0-6.5,0-6.5l-1.7-2.5l-2.8-3.4l-3.5-2.7l-5-2.1c0,0-3.3-0.3-4.6-0.3c-1.3,0-15.3-0.3-21.7-1.3
	s-12.8-1.1-12.8-1.1s-4.5,0.8-9.6,0.5s-2.2-0.1-8-1.6s-8.5-0.6-8.5-0.6l-6.4,1.2l-8.4,2l-10.5,3.5l-10.3,5.3l-8.8,5.3l-5,4.5l-4.4,5
	l-1.3-0.7l-1.5-1.8l-0.9-3.2c0,0-3-2.3-3.2-2.4c-0.1,0-3.7-2.7-3.7-2.7l-6.6-0.2l-9.2,0.6c0,0-7.5,6.1-9.6,1.2s-6.2-6.5-6.2-6.5
	l-2.3-1l-39.6-1.1l-2.3,0.3l-1.8-0.3l-4.7-2.5l-4.2-1.9l-4.5-1.5l-3.6-1.8l-3-1.7l-1.9-1l-1.3-0.4l-1.8,0.3l-5.7,2.4l-5.9,2.4
	l-6.4,3.3l-7,3.7l-4.6,3.2l-4.5,2.8l-3.8,3.1c0,0-2.8,3.3-2.9,3.3c-0.1,0-3.5,4.8-3.5,4.8l-2.8,2.3l-10.5,0.4l-23.9,0.1l-9.8,0.3
	l-22.1,0l-24.1-0.2l-23,0.4l-5.3-3c0,0-60-16-63-16s-227.7,159.7-227.7,159.7l-193.8-13.8l0.3-2.7l2.2-5.3l5.2-14.7l2.7-8.3l2.2-8.4
	l1.7-9.3v-7.8l-0.3-5.2v-9l-1-7.5l-1.1-5.1l-1.3-3.8L969,971l-2.3-4.6l-3.8-5c0,0-3.6-2.5-9.5-9.2c-5.9-6.6-20.4-14.9-23.5-16
	s-13.8-5.9-20.1-11.8c-6.3-5.9-15.3-12.4-20-15.9c-4.7-3.5-8.6-5.3-11.4-6.6c-2.8-1.3-7.6-5.4-11.3-7.3c-3.7-1.9-8.5-2-10.7-2.6
	c-2.2-0.5-3.4-2-7.6-4.1c-4.2-2.1-7.7-2.8-10.6-3.2c-2.9-0.4-7.9-0.1-7.9-0.1s-2.6,0.4-2.7,0.5c0,0.1-1.8,1.1-1.8,1.1l-2.8-2.5
	l-4-2.5l-3.4-1.7l-7.2-0.4c0,0-4.4-0.5-7.8-0.9c-3.3-0.4-4.3,0.5-4.4,0.5s-3.5,1.3-3.5,1.3s-4.1,0.4-5.4,0.3
	c-1.3-0.1-3.5,1.3-3.5,1.3s-0.7,1.6-2.2,0.5c-1.5-1.1-2.6-1.1-5.4-2.6c-2.8-1.5-9-3.4-14.3-4.1c-5.3-0.7-11.3,0.3-11.3,0.3l-3.2,1.1
	l-3.7,2.5l-2.5,2.5l-3.3,1c0,0-4.6-0.9-15.3,7c-10.7,7.9-13.6,14.3-18,19.5c-4.4,5.2-7.2,16.3-9.9,21.4s-3.7,13.8-3.8,14.2
	c-0.2,0.4,0.3,3.3,0.3,3.3l-1.7,6.5l0.4,3.3c0,0-1.2,5-1.3,5.5c-0.1,0.5,0.2,4.5,0.2,4.6s-0.8,2.6-0.8,2.8c0,0.1,0,4,0,4l-1.3,4.4
	c0,0,0.2,5.5,0,5.6c-0.2,0.1,0,9.7,0,9.8L478,1047.3l0.7-10v-7.9l-1-8.6l-0.6-11.6l-0.8-4.1l-1.3-3.8l-2-3.6l-3.3-3.9l-3.4-4.8
	l-3.1-3.4l-3.5-3.3l-5.8-3.8l-5.5-5.6l-8.3-6.4l-8-6.8l-7.9-5L416,950l-9.3-3.9l-8.8-2.9l-3.3-1.3l-4.5-4.1l-5.5-5l-7.6-6.6
	l-7.6-6.5l-8.1-6.6l-6.4-4.9l-7.6-5.1l-5.4-2.9l-5.9-2.1l-3.3-1.5l-2.8-2.6l-4.1-3.5l-4.9-2.1l-5.5-1.6l-6.8-1.4l-4.3-1.3l-5.5-3.1
	l-5.8-3.4l-7.8-2.8l-8.3-2.3l-6.6-0.8h-5.3l-2.1,0.5l-3.8,1l-2.3-0.5l-1.4-1.8l-4-3.3l-4.8-3.1l-9.3-2.6l-12.8-0.9l-7,0.4l-3.4,1.3
	l-1.6-1.5l-3.9,0.1c0,0-6-0.4-6.4-0.4s-2.6,0.3-2.6,0.3l-2.4,2.4l-1.4-1l-4.1-1.9l-5.6-1.6l-6-0.6l-7.9-1.5l-12.9-1.9h-12l-6,1.6
	l-10.1,3.8c0,0-5.8,3.9-6.1,4s-3.1,0-3.1,0l-7.4,1.9L106,870l-10.6,6l-8.8,6.9l-10.9,9.5l-9,11.3l-7.3,12.5l-7.4,16.5l-4.3,10
	l-3.5,13.1v5.4l-1.5,2.6l-1.3,5.4l-2.8,7.5v7.3L37,994.8l-2,5.4l-0.6,5.6l-1.6,5.6l-3,10.6c0,0-0.8,5.9-0.8,6.3s-1.8,8.5-1.8,8.9
	s-1.5,8.1-1.5,8.1v11.1v9.6l0.6,5.8v5.9l1.3,3.9l0.6,11.3c0,0,1.3,10.5,1.3,10.9s2.4,7.3,2.6,7.6s1.4,7.8,1.4,7.8l2.9,6v4.4
	l-0.3,1.9l2.1,3.6l3.4,6.4l3,8l1.3,7.1c0,0-3.1,26.9-3.1,27.6s11,23,11,23s154.5,36,155.5,36.5s257.8-12.8,257.8-12.8l208-160.3
	l49.5,104.3L1412,1216l582.5-2.8l1.3-71.5L1981.6,1119.1z"/>
</svg>
