<svg id="Layer_1" data-name="Layer 1" xmlns="http://www.w3.org/2000/svg" viewBox="-1 6 1994.48 1231">
	<path class="color_meb" d="M1990.5,1150l-5.81-57.16-4.34-69.17-4.23-54L1973,934.42l-1.25-6.27-3.62-4.76-4.75-2.63-8.25-2.38-10.37-1.88-32-3.5-31.37-1.5H1849l12.13-12,0.25-5.25-1.12-4.5-3.62-4.75-5.25-4-6-1.62-16.12-1.25s-29-1.25-29.37-1.25-9.25-1.25-9.25-1.25l-9.5-.62s-12,3.63-12.37,3.63-9.87,3.25-9.87,3.25l-12.12,5.38-8,5.38-3.87,2.88-5.12,5.63-4.87-6.62-5-3.5s-15.62.5-16,.5H1700l-2.37-3.5-5-2.75-8-.12-10.75-.62-10.62-.62-10,.25-10.87-5a31.49,31.49,0,0,1-4.5-1.5c-0.37-.37-7.37-4.62-7.37-4.62l-3.75.75-13.5,5.75-11.87,5.38-5,3-3.37,1-6.62,6.38-7.37,8.5-2.37,1-18.12.75H1470l-88.93-22.42-469.48-147L622.11,884.58,503.25,961.13l-18.62.38-9.62.38-3.75-5.75-6.87-7.25-13.62-11.75-11.37-9.37-8.62-6.12s-9.87-5.5-10.37-6-11.12-4.62-11.5-4.75-6.87-2-7.5-2.25-5-4.62-5.37-4.87S386,894,386,894s-10.87-9.5-11.37-9.62-13.37-10.5-13.75-10.62-5.75-4.37-5.75-4.37l-12.62-5.5s-2.62-1.25-3-1.5-4.87-5-4.87-5l-8.25-3.25-8.62-1.75L313,851.13l-9.5-6.37-10.25-4.12-13-2.37-15,.63-6.37-6.25s-5.12-2.5-5.5-2.62-12.12-1.62-12.12-1.62l-17.62.25-8.87-1.25-5.37-.37-3,1.63-1.25.5a17.44,17.44,0,0,0-2.75-2c-0.37,0-7.25-1.25-7.25-1.25l-8-.87-4.5-.5s-7.62-2-8-2.12-9.87-1-9.87-1l-12.12.63-7.12,2.38-10.37,4.88-3.75,1.63-6.87,1-5,1.75-8.37,3.88-9.62,5.63L89,852.88,76.25,866.63l-7.62,12.5-4.25,8.63-1.5,4.88-5,10.63-3,8.13L52.5,921.63l-0.62,4.88-2.12,7-2.69,8.13-0.56,5.75V953l-4.25,13.88L38,983.63,35.25,998l-1.75,8.13V1036l1.38,11,0.63,9.5,3.13,15.5,1.5,8.5,3.63,12.75,0.25,7.58,1.5,18.83L45,1214l410,16,280-6,658-10,602.08,6.36Z" transform="translate(-3.97 0.5)"/>
</svg>