
<!-- Generator: Adobe Illustrator 21.0.0, SVG Export Plug-In . SVG Version: 6.00 Build 0)  -->
<svg version="1.1" id="Layer_1" xmlns="http://www.w3.org/2000/svg" xmlns:xlink="http://www.w3.org/1999/xlink" x="0px" y="0px"
	 viewBox="0 0 5669.3 3543.3" style="enable-background:new 0 0 5669.3 3543.3;" xml:space="preserve">
<style type="text/css">
	<!-- .st0{fill:#662D91;stroke:#000000;stroke-miterlimit:10;} -->
</style>
<g>
	<path class="color_meb" d="M0,3086.9c0,108.7,0,217.3,0,326c3.1,0.4,6.3-0.9,9.3,1.8c1,0.9,4.4-1.4,6.8-1.7c3.3-0.3,6.6-0.1,9.9-0.1
		c86,0,172,0,257.9-0.1c5.4,0,10.6,0.8,16-2.4c4.3-2.6,11.1,2,15.8-2.8c19.7-1.2,37.5-9.9,56.3-14.8c18.1-4.8,35.3-12.9,53.4-18.1
		c27-7.8,53-18.3,79.9-25.9c32.5-9.3,63.9-21.5,96.3-31.1c24-7.1,47.3-16.3,71.3-23c26.7-7.4,52.4-17.6,78.9-25.1
		c15.2-4.3,30.2-9.3,45.1-14.3c14.5-4.8,28.8-11.1,43.5-14.5c23.2-5.4,44.9-15.3,68-21.1c7-1.8,14.6-2.7,21.4-6.3
		c6.1-3.2,13-5.2,19.6-7.3c7.1-2.2,14.5-3.6,21.6-6c6.6-2.2,12.9-7.3,19.4-7.4c8.7-0.1,14.8-5.9,23-6.9c8-1,15.6-5.5,23.5-8
		c7.5-2.5,15.2-4.4,22.8-6.6c15.2-4.4,29.8-10.2,45.1-14.3c15.1-4.1,29.7-10.4,44.5-15.8c8.2,1.7,14.1-4.8,21.6-6.1
		c7.7-1.3,15.1-4.5,22.6-6.9c7.1-2.3,14.1-4.7,21.2-7c7.1-2.3,14.1-4.9,21.2-6.9c24.4-7,48.6-14.6,72.2-24.1
		c9.1,2.1,15.6-5.8,24.5-6.3c7.9-0.5,15.6-5.2,23.4-8c7.4-2.6,14.8-5.3,22.3-7.7c7.9-2.5,16-4.6,24-7.1c14.7-4.5,29.3-9,43.9-13.7
		c1-0.3,1.5-1.8,2.3-2.8c-2.4-0.9-4.8-2.6-7.3-2.7c-9.6-0.6-19-0.4-28.6-2.5c-12-2.7-24.6-2.1-37-3.3c-4.8-0.5-9.6-1.9-14.4-2.7
		c-4.4-0.8-9.4,1.8-13.1-2.6c-8.4,1.5-16.1-2.2-24.2-3.2c-18.4-2.3-36.6-6.1-53.6-14.1c-5.2-2.4-10-5.8-14.3-8.4
		c-0.2-1.7-0.3-2.2-0.3-2.6c0-9.9,0-19.8,0-29.3c8.6-13.2,22.8-15.8,36.1-18.8c16.1-3.6,32-9,48.8-8.8c5.7-4.3,13.4-0.5,18.4-3.4
		c6.6-3.8,12.7-1.3,19-2.2c5.3-0.8,10-3.9,15.8-3.1c4.8,0.6,10.2,1.6,14.4-2.6c0.2-0.2,0.9,0,1.4,0c12.4-0.9,24.7-1.7,37.1-2.9
		c6.3-0.6,12.4-2.2,18.7-2.7c6.6-0.5,13.5,1.1,19.7-0.5c4.9-1.3,9.5-2.6,14.5-2.4c0-15.5-0.2-31.1,0.2-46.6c0.1-4-1.5-6.9-3-10.1
		c0.5,0,1,0.1,1.4,0c0.4-0.2,1-0.9,1-0.9c-4-4.8-2.1-10.4-2.3-15.7c-1.5-29.4,3.9-59.3-5.6-88.2c-3.4-10.4-4.6-21.4-10-31.3
		c-11.7-21.7-15.3-24.6-34.9-43.3c-19.1-18.2-42.7-26.1-68.1-30.5c-7.6-1.3-15.1-3.5-22.9-2.7c-10.2-6.3-22.1-1.3-33.2-5.1
		c-9.6-3.3-20.7-0.4-31.3-2.9c-10.5-2.4-21.8-1.8-32.7-2.9c-26.3-2.5-52.9,0.5-79.5-2.7c-16.2-2-33.4-3.4-49.7,2.3
		c-19.4-1.6-39,3.1-58.3-2.6c-4.8-1.4-10.3-0.5-15.5-0.1c-4.4,0.3-9.4-2-13.1,2.5c-4.5-6.8-8.6,0.7-13.1,0.5
		c-17.9-0.6-35.8-0.3-53.8-0.3c-0.9-1.5-1.7-3-2.2-3.8c1.3-5.3,4.6-8.4,9.4-9.9c8.6-1.9,16.5,0.5,24,5.2c0.4-2.1-1.4-5.4,2.8-5.7
		c-1-1.9-2-3.8-3-5.6c5.5-9.2,1.9-19,3-28.4c0.3-10.5-4.8-20.5-2.8-31.2c-5.5-1.3-1.8-5.7-2.8-8.5c-1.3-6.1-1.9-12.6-3.4-18.5
		c-3-11.5-5.7-23.1-8.7-34.5c-3.2-12-3.9-24.6-8-36.3c-2.2-6.1-1.8-12.3-3.6-18.3c-4.6-15.1-8.7-30.3-13-45.5
		c-0.9-0.7-2.5-1.4-2.7-2.3c-0.7-3.5,0.6-7-2.4-10.4c-2.4-2.7,1.3-8.4-3.2-11.3c-2.4-12.1-8.1-23.2-11-35
		c-3.1-12.4-8.4-24-12.3-36.1c-4.6-14.3-9.8-28.6-19.2-42.1c-1.7,1.6-3.1,3.8-4.3,3.7c-10.7-0.7-21,1.5-31.4,3.1
		c-14,2.1-27.5-2.9-41.3-2.9c-5.3,0-10.6-0.7-16-2.1c-5.9-1.4-12.2-3.4-18.5-3.5c-10-0.1-19.4-2.3-28.9-5.4
		c-6.8-2.2-14.2-2.2-21.3-3.2c1.4,2.5,2.7,5,4,7.5c1.9,3.8,3.7,7.7,5.4,11.6c-1.7-3.9-3.5-7.8-5.4-11.6c-1.3-2.5-2.6-5.1-4-7.5
		c-5.7-9.9-10.5-20.3-17.2-29.4c-6.9-9.4-13.4-19.8-21.9-27.3c-9-7.9-17.3-16.4-25.4-23.4c-0.8-3.5-1.4-5.8-2.3-9.3
		c-21.7,14.6-40.3,30.7-60.7,44.1c-5.4,4.8-10.8,9.7-16,14.3c-2.7-0.8-6.3,1.5-6.7-3c-5.4-11.5-11.6-22.6-14.3-35.2
		c-0.3-1.6-1.8-3-2.8-4.5c-4.3,0.9-8.6,2.3-13,2.8c-11.4,1.2-22.8,2-34.2,2.9c-0.9,0.1-1.9,0-2.7,0.3c-8.9,3.4-18,5.2-27.5,5.5
		c-2.9,0.1-5.8,1.8-8.8,2.8c-1-1-2-2.7-3.1-2.8c-10.9-1.1-21.9-2-32.8-2.9c-1.9-0.2-4.5,0.8-5.5-0.2c-7-6.2-15.8-1.3-23.7-4.4
		c-7.8-3.1-17.6-0.9-26.5-1.2c-3.7-0.1-8.8,1.2-10.9-0.7c-5.5-5.2-9.2,0.4-13.6,0.9c-4.4-6.8-13.3,0.7-17.6-5.9
		c-14.1,0-28.3,0-42.2,0c-9.9-5.9-27.4-11.7-36.6-11.3c-17.4,0.8-33.8-4.6-50.3-8.7c-7.2-1.8-14-4.8-21-7.2
		c-3.4-1.2-8.5,0.4-10.6-1.5c-5-4.3-11.2-2.1-16.6-4.8c-4.2-2.1-10.3-1.9-15.6-3.3c-5.6-1.5-11.5-1.7-17.2-3
		c-6.4-1.5-13.1-2.8-18.8-5.8c-5.9-3.2-11.4-7.7-16-12.7c-11.9-12.8-26.9-20.9-41.6-29.6c-3.1-1.8-6.1-3.7-9.4-5.7
		c-11.6-0.9-23.1,4.7-35.3,3c-1.3-0.2-3,1.7-4.5,2.7c-3.5-4-2.7-9.2-5.1-12.6c-1.7-2.8-3.3-5.6-4.2-7.2c-8.4,2.1-15.1,3.8-21.8,5.6"
		/>
	<polygon class="color_meb" points="586.8,2182.7 589.5,2187.2 592.2,2196.5 599.9,2214.3 603.8,2222.4 604.3,2224.2 606.1,2225.2 
		608.1,2224.6 610.5,2225.4 618.6,2218.1 626.5,2211 593.7,2182.7 	"/>
</g>
</svg>
