<svg version="1.1"  xmlns="http://www.w3.org/2000/svg" xmlns:xlink="http://www.w3.org/1999/xlink" x="0px" y="0px"
	 viewBox="0 -8 2000 1250" style="enable-background:new 0 0 2000 1250;" xml:space="preserve">
<polygon class="level_1" points="365,329 23.5,0 2000,1.6 1624,329 1403.5,329 "/>
<g>
	<path class="level_2" d="M1384.7,312.8c-50.4-28.3-117.9-39.7-130.9-43.8c0,0-124.5-33.3-345-14.3s-270,72.5-270,72.5v25.3h767
		l0.3-24.5l-8.2-6.9C1397.8,321.1,1385.4,313.3,1384.7,312.8z"/>
	<path class="level_2" d="M0,1.6v19.2l133.3,123.3c0,0,83.3-32.7,349.3-58c266-25.3,534.7,20,534.7,20s208.7,24,354.7,92
		s132.5,108.6,134,130.3s1.3,24,1.3,24h121.3l371.5-325V1.6H0z"/>
</g>
</svg>
