<svg version="1.1" id="Layer_1" xmlns="http://www.w3.org/2000/svg" xmlns:xlink="http://www.w3.org/1999/xlink" x="0px" y="0px"
	 viewBox="0 0 2000 1250" style="enable-background:new 0 0 2000 1250;" xml:space="preserve">
<polygon class="level_1" points="0,38.1 373.6,360.6 1636.6,360.6 1704.7,300 1703.3,272.2 1991.5,-0.5 0,-0.5 "/>
<g>
	<path class="level_2" d="M1490,71.5l92.7-45.3V0H349.3l-1.2,24.8c0,0,241.2,144,576.5,146.7S1490,71.5,1490,71.5z"/>
	<path class="level_2" d="M1702.7,272.8l-14.2,2c0,0-39.7,6-86.4,12.2c-55.8,7.4-179.6,22-316.8,21.8c-113.1-0.1-218.7-8-218.7-8
		S997.9,299,882,278.5c-60.3-10.7-149.5-29.9-214.7-49C367.5,141.5,210.7,0,210.7,0L0-0.5v35.3l374,326h1260l70.3-60L1702.7,272.8z"
		/>
</g>
</svg>
