<svg version="1.1" id="Layer_1" xmlns="http://www.w3.org/2000/svg" xmlns:xlink="http://www.w3.org/1999/xlink" x="0px" y="0px"
	 viewBox="0 0 2000 1250" style="enable-background:new 0 0 2000 1250;" xml:space="preserve">
<polygon class="level_1" points="8,0 376,333.5 988,338.5 1267.1,336.6 1623,338.5 2000,-0.5 "/>
<g>
	<path class="level_2" d="M970.2,287l-52.9-0.2c0,0-21,0.8-21.7-7.5c0-0.3-0.2-0.5-0.2-0.8c-6-20.3-20-46.8-109-84
		c-88.2-36.8-185.3-49.7-210.1-54.3c-32.5-6-211.9-18.8-229.1-19.8c-17.2-1-25.7-8.2-25.7-8.2s-9.8-13-21.8-27.2
		c-12-14.2-39-13-39-13h-173l-3,37l279,252l624-2.3c0,0,0.3-58.3-1.7-65.3S970.2,287,970.2,287z"/>
	<path class="level_2" d="M968,0v77.2c0,0-0.3,18.3,27.3,17.3c27.7-1,85.7,0,85.7,0s11.7,0,11,7.6c-0.7,7.7-3,24.7-3,24.7l3,21.3
		c0,0-0.4,4.7,13,7c13.3,2.3,77,0,77,0s-3.8,10.3-4.3,13.8c-4.3,27.5-0.3,42.8-0.3,42.8s8.4,42.4,41,65.7c9.8,7,29.9,20,58.4,29.8
		c3.9,1.3,21.9,6.6,21.9,6.6h-14.3c0,0-8,2.7-11.7,8.7c-3.7,6-5.5,14.1-5.5,14.1l-0.5,22.9l362.3-1.3l371-321.3V-0.5L968,0z"/>
</g>
</svg>
